<?xml version="1.0" encoding="utf-8"?>
<!-- Generator: Adobe Illustrator 26.5.1, SVG Export Plug-In . SVG Version: 6.00 Build 0)  -->
<svg version="1.1" id="Capa_1" xmlns="http://www.w3.org/2000/svg" xmlns:xlink="http://www.w3.org/1999/xlink" x="0px" y="0px"
	 viewBox="0 0 408 408" style="enable-background:new 0 0 408 408;" xml:space="preserve">
<style type="text/css">
	.st0{fill:#5F6368;}
</style>
<g>
	<g id="apps">
		<path class="st0" d="M51,102L51,102c28.2,0,51-22.8,51-51v0c0-28.2-22.8-51-51-51h0C22.8,0,0,22.8,0,51v0C0,79.2,22.8,102,51,102z
			 M204,408L204,408c28.2,0,51-22.8,51-51v0c0-28.2-22.8-51-51-51h0c-28.2,0-51,22.8-51,51v0C153,385.2,175.8,408,204,408z M51,408
			L51,408c28.2,0,51-22.8,51-51v0c0-28.2-22.8-51-51-51h0c-28.2,0-51,22.8-51,51v0C0,385.2,22.8,408,51,408z M51,255L51,255
			c28.2,0,51-22.8,51-51v0c0-28.2-22.8-51-51-51h0c-28.2,0-51,22.8-51,51v0C0,232.2,22.8,255,51,255z M204,255L204,255
			c28.2,0,51-22.8,51-51v0c0-28.2-22.8-51-51-51h0c-28.2,0-51,22.8-51,51v0C153,232.2,175.8,255,204,255z M306,51L306,51
			c0,28.2,22.8,51,51,51h0c28.2,0,51-22.8,51-51v0c0-28.2-22.8-51-51-51h0C328.8,0,306,22.8,306,51z M204,102L204,102
			c28.2,0,51-22.8,51-51v0c0-28.2-22.8-51-51-51h0c-28.2,0-51,22.8-51,51v0C153,79.2,175.8,102,204,102z M357,255L357,255
			c28.2,0,51-22.8,51-51v0c0-28.2-22.8-51-51-51h0c-28.2,0-51,22.8-51,51v0C306,232.2,328.8,255,357,255z M357,408L357,408
			c28.2,0,51-22.8,51-51v0c0-28.2-22.8-51-51-51h0c-28.2,0-51,22.8-51,51v0C306,385.2,328.8,408,357,408z"/>
	</g>
</g>
</svg>
